/* XPM */
static char *mouse_cursor_xpm[] = {
/* columns rows colors chars-per-pixel */
"39 39 5 1 ",
"  c black",
". c #797979",
"X c gray92",
"o c gray100",
"O c None",
/* pixels */
"                           OOOOOOOOOOOO",
"                           OOOOOOOOOOOO",
"                           OOOOOOOOOOOO",
"   XXXXXXXXXXXXXXXXXXXXX   OOOOOOOOOOOO",
"   XXXXXXXXXXXXXXXXXXXXX   OOOOOOOOOOOO",
"   XXXXXXXXXXXXXXXXXXXXX   OOOOOOOOOOOO",
"   XXXooooooooo...         OOOOOOOOOOOO",
"   XXXooooooooo...         OOOOOOOOOOOO",
"   XXXooooooooo...         OOOOOOOOOOOO",
"   XXXooooooooo...   OOOOOOOOOOOOOOOOOO",
"   XXXooooooooo...   OOOOOOOOOOOOOOOOOO",
"   XXXooooooooo...   OOOOOOOOOOOOOOOOOO",
"   XXXoooooooooXXX...   OOOOOOOOOOOOOOO",
"   XXXoooooooooXXX...   OOOOOOOOOOOOOOO",
"   XXXoooooooooXXX...   OOOOOOOOOOOOOOO",
"   XXX......XXXoooXXX...   OOOOOOOOOOOO",
"   XXX......XXXoooXXX...   OOOOOOOOOOOO",
"   XXX......XXXoooXXX...   OOOOOOOOOOOO",
"   XXX      ...XXXoooXXX...   OOOOOOOOO",
"   XXX      ...XXXoooXXX...   OOOOOOOOO",
"   XXX      ...XXXoooXXX...   OOOOOOOOO",
"   XXX   OOO   ...XXXoooXXX...   OOOOOO",
"   XXX   OOO   ...XXXoooXXX...   OOOOOO",
"   XXX   OOO   ...XXXoooXXX...   OOOOOO",
"         OOOOOO   ...XXXoooXXX...   OOO",
"         OOOOOO   ...XXXoooXXX...   OOO",
"         OOOOOO   ...XXXoooXXX...   OOO",
"OOOOOOOOOOOOOOOOOO   ...XXXoooXXX...   ",
"OOOOOOOOOOOOOOOOOO   ...XXXoooXXX...   ",
"OOOOOOOOOOOOOOOOOO   ...XXXoooXXX...   ",
"OOOOOOOOOOOOOOOOOOOOO   ...XXX...   OOO",
"OOOOOOOOOOOOOOOOOOOOO   ...XXX...   OOO",
"OOOOOOOOOOOOOOOOOOOOO   ...XXX...   OOO",
"OOOOOOOOOOOOOOOOOOOOOOOO   ...   OOOOOO",
"OOOOOOOOOOOOOOOOOOOOOOOO   ...   OOOOOO",
"OOOOOOOOOOOOOOOOOOOOOOOO   ...   OOOOOO",
"OOOOOOOOOOOOOOOOOOOOOOOOOOO   OOOOOOOOO",
"OOOOOOOOOOOOOOOOOOOOOOOOOOO   OOOOOOOOO",
"OOOOOOOOOOOOOOOOOOOOOOOOOOO   OOOOOOOOO"
};
